<svg width="32" height="32" viewBox="0 0 32 32" fill="none" xmlns="http://www.w3.org/2000/svg">
<path d="M31.5998 27.84C31.8522 28.0904 31.9942 28.4312 31.9942 28.7867C31.9942 29.1422 31.8522 29.483 31.5998 29.7333L29.7331 31.6C29.4827 31.8524 29.142 31.9944 28.7864 31.9944C28.4309 31.9944 28.0901 31.8524 27.8398 31.6L15.9998 19.76L4.15977 31.6C3.90941 31.8524 3.56862 31.9944 3.2131 31.9944C2.85759 31.9944 2.51679 31.8524 2.26644 31.6L0.399769 29.7333C0.147352 29.483 0.00537109 29.1422 0.00537109 28.7867C0.00537109 28.4312 0.147352 28.0904 0.399769 27.84L12.2398 16L0.399769 4.16001C0.147352 3.90966 0.00537109 3.56886 0.00537109 3.21335C0.00537109 2.85783 0.147352 2.51704 0.399769 2.26668L2.26644 0.400013C2.51679 0.147596 2.85759 0.00561523 3.2131 0.00561523C3.56862 0.00561523 3.90941 0.147596 4.15977 0.400013L15.9998 12.24L27.8398 0.400013C28.0901 0.147596 28.4309 0.00561523 28.7864 0.00561523C29.142 0.00561523 29.4827 0.147596 29.7331 0.400013L31.5998 2.26668C31.8522 2.51704 31.9942 2.85783 31.9942 3.21335C31.9942 3.56886 31.8522 3.90966 31.5998 4.16001L19.7598 16L31.5998 27.84Z" fill="#CC264E"/>
</svg>
