<svg width="170" height="106" viewBox="0 0 170 106" fill="none" xmlns="http://www.w3.org/2000/svg">
<path d="M55.743 21.9504V105.985L32.5096 21.9504H0.375V0.565186L55.743 0.565206L55.743 21.9504Z" fill="#252F60"/>
<path d="M169.184 53.2753C169.184 60.7049 167.826 67.6325 165.111 74.0582C162.395 80.4838 158.523 86.056 153.494 90.7748C148.566 95.4936 142.631 99.2084 135.692 101.919C128.852 104.63 121.309 105.985 113.062 105.985H71.875V0.565196H113.062C121.309 0.565196 128.852 1.9206 135.692 4.63141C142.631 7.24181 148.566 10.9064 153.494 15.6252C158.523 20.344 162.395 25.9163 165.111 32.3419C167.826 38.6671 169.184 45.5445 169.184 52.9741V53.2753ZM144.894 53.5765V53.2753C144.894 48.6569 144.09 44.3899 142.481 40.4743C140.972 36.5587 138.809 33.1953 135.993 30.3841C133.278 27.5729 129.959 25.4142 126.036 23.9082C122.114 22.3018 117.789 21.4986 113.062 21.4986H95.1084V85.052H113.062C117.789 85.052 122.114 84.299 126.036 82.793C129.959 81.287 133.278 79.1284 135.993 76.3172C138.809 73.506 140.972 70.1927 142.481 66.3775C144.09 62.5623 144.894 58.2953 144.894 53.5765Z" fill="#CC264E"/>
</svg>
