<svg width="169" height="106" viewBox="0 0 169 106" fill="none" xmlns="http://www.w3.org/2000/svg">
<path d="M55.368 21.3852V105.42L32.1346 21.3852H0V0L55.368 2.09212e-05L55.368 21.3852Z" fill="#3F4668"/>
<path d="M168.809 52.7101C168.809 60.1397 167.451 67.0674 164.736 73.493C162.02 79.9186 158.148 85.4908 153.119 90.2096C148.191 94.9284 142.256 98.6432 135.317 101.354C128.477 104.065 120.934 105.42 112.687 105.42H71.5V1.05202e-05H112.687C120.934 1.05202e-05 128.477 1.35541 135.317 4.06622C142.256 6.67663 148.191 10.3412 153.119 15.06C158.148 19.7789 162.02 25.3511 164.736 31.7767C167.451 38.1019 168.809 44.9793 168.809 52.4089V52.7101ZM144.519 53.0113V52.7101C144.519 48.0917 143.715 43.8247 142.106 39.9091C140.597 35.9935 138.434 32.6301 135.618 29.8189C132.903 27.0077 129.584 24.8491 125.661 23.3431C121.739 21.7367 117.414 20.9335 112.687 20.9335H94.7334V84.4868H112.687C117.414 84.4868 121.739 83.7338 125.661 82.2278C129.584 80.7218 132.903 78.5632 135.618 75.752C138.434 72.9408 140.597 69.6276 142.106 65.8124C143.715 61.9971 144.519 57.7301 144.519 53.0113Z" fill="#3F4668"/>
</svg>
