<svg width="64" height="64" viewBox="0 0 64 64" fill="none" xmlns="http://www.w3.org/2000/svg">
<path fill-rule="evenodd" clip-rule="evenodd" d="M62.6667 11.6667H17.3333C16.597 11.6667 16 11.0698 16 10.3334V7.66671C16 6.93033 16.597 6.33337 17.3333 6.33337H62.6667C63.403 6.33337 64 6.93033 64 7.66671V10.3334C64 11.0698 63.403 11.6667 62.6667 11.6667ZM64 26.3334V23.6667C64 22.9303 63.403 22.3334 62.6667 22.3334H33.3333C32.597 22.3334 32 22.9303 32 23.6667V26.3334C32 27.0698 32.597 27.6667 33.3333 27.6667H62.6667C63.403 27.6667 64 27.0698 64 26.3334ZM64 39.6667V42.3334C64 43.0698 63.403 43.6667 62.6667 43.6667H49.3333C48.597 43.6667 48 43.0698 48 42.3334V39.6667C48 38.9303 48.597 38.3334 49.3333 38.3334H62.6667C63.403 38.3334 64 38.9303 64 39.6667Z" fill="#CC264E"/>
</svg>
