<svg width="651" height="64" viewBox="0 0 651 64" fill="none" xmlns="http://www.w3.org/2000/svg">
<path d="M136.725 11.7888H128.415V33.4693H122.408V11.7888H114.098V6.2715H136.725V11.7888Z" fill="#3F4668"/>
<path d="M169.903 33.4693H163.895V22.5513H152.816V33.4693H146.808V6.2715H152.816V17.0341H163.895V6.2715H169.903V33.4693Z" fill="#3F4668"/>
<path d="M188.191 33.4693H182.183V6.2715H188.191V33.4693Z" fill="#3F4668"/>
<path d="M223.69 26.0093C223.69 27.2527 223.443 28.3406 222.949 29.2731C222.481 30.2056 221.792 30.9827 220.881 31.6043C219.997 32.226 218.918 32.6922 217.643 33.0031C216.395 33.3139 215.003 33.4693 213.469 33.4693H200.478V6.2715H213.157C215.966 6.2715 218.163 6.90612 219.75 8.17535C221.362 9.44458 222.169 11.1542 222.169 13.3041V13.3818C222.169 14.1589 222.065 14.8453 221.857 15.4411C221.675 16.0368 221.414 16.5808 221.076 17.0729C220.764 17.5392 220.387 17.9536 219.945 18.3163C219.529 18.6789 219.074 18.9897 218.58 19.2487C220.166 19.8445 221.414 20.6604 222.325 21.6966C223.235 22.7068 223.69 24.1185 223.69 25.9316V26.0093ZM216.2 14.392V14.3143C216.2 13.4077 215.862 12.7213 215.185 12.255C214.509 11.7629 213.534 11.5168 212.259 11.5168H206.33V17.2672H211.869C213.196 17.2672 214.249 17.047 215.029 16.6067C215.81 16.1404 216.2 15.4022 216.2 14.392ZM217.721 25.2711V25.1934C217.721 24.2868 217.37 23.5745 216.668 23.0564C215.966 22.5125 214.834 22.2405 213.274 22.2405H206.33V28.224H213.469C214.795 28.224 215.836 27.9909 216.59 27.5247C217.344 27.0325 217.721 26.2813 217.721 25.2711Z" fill="#3F4668"/>
<path d="M260.701 33.4693H254.42L251.923 27.3692H240.375L237.878 33.4693H231.753L243.457 6.07724H248.997L260.701 33.4693ZM249.777 22.0851L246.149 13.2652L242.521 22.0851H249.777Z" fill="#3F4668"/>
<path d="M293.746 21.6188C293.746 23.6911 293.46 25.4913 292.888 27.0196C292.342 28.5478 291.549 29.83 290.508 30.8661C289.468 31.8763 288.206 32.6404 286.724 33.1585C285.241 33.6506 283.59 33.8967 281.769 33.8967C278.102 33.8967 275.215 32.8865 273.108 30.8661C271.002 28.8457 269.948 25.828 269.948 21.8131V6.2715H275.956V21.6577C275.956 23.8853 276.477 25.569 277.517 26.7087C278.557 27.8225 280.001 28.3794 281.847 28.3794C283.694 28.3794 285.137 27.8355 286.178 26.7476C287.218 25.6597 287.738 24.0278 287.738 21.852V6.2715H293.746V21.6188Z" fill="#3F4668"/>
<path d="M326.004 11.7888H317.695V33.4693H311.687V11.7888H303.377V6.2715H326.004V11.7888Z" fill="#3F4668"/>
<path d="M378.408 19.8704C378.408 21.7872 378.057 23.5745 377.355 25.2323C376.652 26.89 375.651 28.3276 374.351 29.5451C373.076 30.7625 371.542 31.7209 369.747 32.4203C367.979 33.1196 366.028 33.4693 363.895 33.4693H353.245V6.2715H363.895C366.028 6.2715 367.979 6.62119 369.747 7.32056C371.542 7.99403 373.076 8.93948 374.351 10.1569C375.651 11.3743 376.652 12.8119 377.355 14.4697C378.057 16.1016 378.408 17.8759 378.408 19.7927V19.8704ZM372.127 19.9481V19.8704C372.127 18.6789 371.919 17.578 371.503 16.5678C371.113 15.5576 370.553 14.6899 369.825 13.9646C369.123 13.2393 368.265 12.6824 367.25 12.2939C366.236 11.8794 365.118 11.6722 363.895 11.6722H359.253V28.0686H363.895C365.118 28.0686 366.236 27.8743 367.25 27.4858C368.265 27.0973 369.123 26.5404 369.825 25.8151C370.553 25.0898 371.113 24.235 371.503 23.2507C371.919 22.2664 372.127 21.1655 372.127 19.9481Z" fill="#3F4668"/>
<path d="M410.017 33.4693H389.223V6.2715H409.822V11.5945H395.192V17.1118H408.067V22.4348H395.192V28.1463H410.017V33.4693Z" fill="#3F4668"/>
<path d="M444.033 26.0093C444.033 27.2527 443.786 28.3406 443.292 29.2731C442.824 30.2056 442.135 30.9827 441.224 31.6043C440.34 32.226 439.261 32.6922 437.986 33.0031C436.738 33.3139 435.346 33.4693 433.812 33.4693H420.821V6.2715H433.5C436.309 6.2715 438.506 6.90612 440.093 8.17535C441.705 9.44458 442.512 11.1542 442.512 13.3041V13.3818C442.512 14.1589 442.408 14.8453 442.2 15.4411C442.018 16.0368 441.758 16.5808 441.419 17.0729C441.107 17.5392 440.73 17.9536 440.288 18.3163C439.872 18.6789 439.417 18.9897 438.923 19.2487C440.509 19.8445 441.758 20.6604 442.668 21.6966C443.578 22.7068 444.033 24.1185 444.033 25.9316V26.0093ZM436.543 14.392V14.3143C436.543 13.4077 436.205 12.7213 435.528 12.255C434.852 11.7629 433.877 11.5168 432.603 11.5168H426.673V17.2672H432.212C433.539 17.2672 434.592 17.047 435.372 16.6067C436.153 16.1404 436.543 15.4022 436.543 14.392ZM438.064 25.2711V25.1934C438.064 24.2868 437.713 23.5745 437.011 23.0564C436.309 22.5125 435.177 22.2405 433.617 22.2405H426.673V28.224H433.812C435.138 28.224 436.179 27.9909 436.933 27.5247C437.687 27.0325 438.064 26.2813 438.064 25.2711Z" fill="#3F4668"/>
<path d="M478.04 33.4693H471.018L465.166 24.766H460.445V33.4693H454.437V6.2715H466.921C470.172 6.2715 472.695 7.06154 474.49 8.6416C476.31 10.2217 477.221 12.4234 477.221 15.2468V15.3245C477.221 17.5262 476.674 19.3265 475.582 20.7252C474.516 22.098 473.111 23.1082 471.369 23.7558L478.04 33.4693ZM471.135 15.6353V15.5576C471.135 14.2625 470.719 13.2911 469.886 12.6436C469.054 11.996 467.897 11.6722 466.414 11.6722H460.445V19.4819H466.531C468.014 19.4819 469.145 19.1322 469.925 18.4328C470.732 17.7334 471.135 16.8009 471.135 15.6353Z" fill="#3F4668"/>
<path d="M515.908 19.8704C515.908 21.8131 515.544 23.6393 514.816 25.3488C514.087 27.0325 513.073 28.5219 511.773 29.817C510.498 31.0863 508.964 32.0965 507.169 32.8477C505.401 33.5729 503.463 33.9356 501.356 33.9356C499.249 33.9356 497.312 33.5729 495.543 32.8477C493.775 32.0965 492.24 31.0992 490.94 29.8559C489.665 28.5867 488.664 27.1102 487.936 25.4265C487.234 23.717 486.882 21.8908 486.882 19.9481V19.8704C486.882 17.9277 487.247 16.1145 487.975 14.4309C488.703 12.7213 489.704 11.2319 490.979 9.96264C492.279 8.6675 493.814 7.6573 495.582 6.93202C497.377 6.18085 499.327 5.80526 501.434 5.80526C503.541 5.80526 505.479 6.18085 507.247 6.93202C509.016 7.6573 510.537 8.65455 511.812 9.92378C513.112 11.1671 514.113 12.6436 514.816 14.3531C515.544 16.0368 515.908 17.85 515.908 19.7927V19.8704ZM509.627 19.9481V19.8704C509.627 18.7048 509.419 17.6039 509.003 16.5678C508.613 15.5317 508.04 14.6251 507.286 13.848C506.558 13.071 505.687 12.4622 504.672 12.0219C503.658 11.5557 502.553 11.3225 501.356 11.3225C500.134 11.3225 499.015 11.5427 498.001 11.983C497.013 12.4234 496.154 13.0321 495.426 13.8092C494.724 14.5863 494.165 15.4929 493.749 16.529C493.359 17.5392 493.163 18.6271 493.163 19.7927V19.8704C493.163 21.036 493.359 22.1369 493.749 23.173C494.165 24.2091 494.737 25.1157 495.465 25.8928C496.219 26.6699 497.091 27.2915 498.079 27.7578C499.093 28.1981 500.212 28.4183 501.434 28.4183C502.631 28.4183 503.736 28.1981 504.75 27.7578C505.765 27.3174 506.623 26.7087 507.325 25.9316C508.053 25.1546 508.613 24.2609 509.003 23.2507C509.419 22.2146 509.627 21.1137 509.627 19.9481Z" fill="#3F4668"/>
<path d="M550.068 21.6188C550.068 23.6911 549.782 25.4913 549.21 27.0196C548.663 28.5478 547.87 29.83 546.83 30.8661C545.789 31.8763 544.528 32.6404 543.046 33.1585C541.563 33.6506 539.912 33.8967 538.091 33.8967C534.424 33.8967 531.537 32.8865 529.43 30.8661C527.323 28.8457 526.27 25.828 526.27 21.8131V6.2715H532.278V21.6577C532.278 23.8853 532.798 25.569 533.839 26.7087C534.879 27.8225 536.322 28.3794 538.169 28.3794C540.016 28.3794 541.459 27.8355 542.499 26.7476C543.54 25.6597 544.06 24.0278 544.06 21.852V6.2715H550.068V21.6188Z" fill="#3F4668"/>
<path d="M585.642 29.0788C584.94 29.83 584.212 30.5035 583.457 31.0992C582.703 31.695 581.871 32.213 580.961 32.6534C580.076 33.0678 579.101 33.3787 578.035 33.5859C576.968 33.819 575.772 33.9356 574.445 33.9356C572.443 33.9356 570.583 33.5729 568.867 32.8477C567.15 32.1224 565.668 31.1381 564.419 29.8948C563.171 28.6255 562.195 27.1361 561.493 25.4265C560.791 23.717 560.44 21.8908 560.44 19.9481V19.8704C560.44 17.9277 560.791 16.1145 561.493 14.4309C562.195 12.7213 563.171 11.2319 564.419 9.96264C565.668 8.6675 567.163 7.6573 568.906 6.93202C570.648 6.18085 572.573 5.80526 574.68 5.80526C575.954 5.80526 577.111 5.90887 578.152 6.11609C579.218 6.32331 580.18 6.60824 581.039 6.97088C581.897 7.33352 582.69 7.77386 583.418 8.29192C584.147 8.80997 584.823 9.37983 585.447 10.0015L581.624 14.392C580.557 13.4336 579.465 12.6824 578.347 12.1385C577.254 11.5945 576.019 11.3225 574.641 11.3225C573.496 11.3225 572.43 11.5427 571.441 11.983C570.479 12.4234 569.647 13.0321 568.945 13.8092C568.242 14.5863 567.696 15.4929 567.306 16.529C566.916 17.5392 566.721 18.6271 566.721 19.7927V19.8704C566.721 21.036 566.916 22.1369 567.306 23.173C567.696 24.2091 568.229 25.1157 568.906 25.8928C569.608 26.6699 570.44 27.2915 571.402 27.7578C572.391 28.1981 573.47 28.4183 574.641 28.4183C576.201 28.4183 577.514 28.1334 578.581 27.5635C579.673 26.9937 580.753 26.2166 581.819 25.2323L585.642 29.0788Z" fill="#3F4668"/>
<path d="M620.765 33.4693H613.547L605.081 21.8908L601.921 25.1546V33.4693H595.913V6.2715H601.921V18.1608L613.001 6.2715H620.257L609.139 17.8111L620.765 33.4693Z" fill="#3F4668"/>
<path d="M650.667 33.4693H629.873V6.2715H650.472V11.5945H635.842V17.1118H648.716V22.4348H635.842V28.1463H650.667V33.4693Z" fill="#3F4668"/>
<path d="M139.515 46.704L133.941 62.112H133.019L128.52 48.8239L124.022 62.112H123.1L117.526 46.704H118.799L123.627 60.3199L128.125 46.6603H129.003L133.502 60.3199L138.33 46.704H139.515Z" fill="#3F4668"/>
<path d="M153.923 62.0027H142.885V46.704H153.813V47.753H144.026V53.7633H152.825V54.8123H144.026V60.9537H153.923V62.0027Z" fill="#3F4668"/>
<path d="M169.765 57.8284C169.765 58.4695 169.633 59.0523 169.37 59.5768C169.107 60.0868 168.734 60.5239 168.251 60.8881C167.768 61.2378 167.19 61.5146 166.517 61.7186C165.844 61.908 165.091 62.0027 164.257 62.0027H157.586V46.704H163.928C164.674 46.704 165.354 46.7914 165.969 46.9662C166.583 47.1411 167.102 47.3961 167.527 47.7312C167.966 48.0517 168.302 48.4451 168.536 48.9114C168.785 49.3776 168.909 49.8949 168.909 50.4631V50.5068C168.909 51.0313 168.829 51.4903 168.668 51.8837C168.522 52.2771 168.324 52.6195 168.075 52.9109C167.827 53.2023 167.541 53.45 167.219 53.654C166.912 53.8434 166.605 54.0037 166.298 54.1348C166.751 54.2514 167.19 54.4116 167.614 54.6156C168.039 54.805 168.404 55.0527 168.712 55.3587C169.034 55.6501 169.29 55.9998 169.48 56.4078C169.67 56.8012 169.765 57.2601 169.765 57.7847V57.8284ZM167.746 50.6161V50.5724C167.746 49.7273 167.417 49.0498 166.759 48.5398C166.1 48.0153 165.149 47.753 163.906 47.753H158.727V53.7633H163.796C164.367 53.7633 164.893 53.6977 165.376 53.5666C165.859 53.4209 166.276 53.2169 166.627 52.9546C166.978 52.6923 167.249 52.3645 167.439 51.9711C167.644 51.5777 167.746 51.126 167.746 50.6161ZM168.602 57.8284V57.7847C168.602 56.8376 168.2 56.1091 167.395 55.5991C166.605 55.0746 165.449 54.8123 163.928 54.8123H158.727V60.9537H164.301C165.618 60.9537 166.664 60.6768 167.439 60.1232C168.214 59.5549 168.602 58.79 168.602 57.8284Z" fill="#3F4668"/>
<path d="M186.699 54.3534C186.699 55.4316 186.502 56.4369 186.107 57.3694C185.712 58.3019 185.149 59.1105 184.417 59.7953C183.7 60.4801 182.837 61.0192 181.828 61.4126C180.833 61.806 179.736 62.0027 178.536 62.0027H173.423V46.704H178.536C179.736 46.704 180.833 46.9007 181.828 47.2941C182.837 47.6729 183.7 48.2047 184.417 48.8895C185.149 49.5743 185.712 50.383 186.107 51.3155C186.502 52.2334 186.699 53.2314 186.699 54.3096V54.3534ZM185.514 54.3971V54.3534C185.514 53.45 185.346 52.5976 185.01 51.7963C184.688 50.9949 184.227 50.2955 183.627 49.6982C183.027 49.1008 182.296 48.6272 181.433 48.2776C180.569 47.9279 179.604 47.753 178.536 47.753H174.564V60.9537H178.536C179.604 60.9537 180.569 60.7861 181.433 60.451C182.296 60.1013 183.027 59.6351 183.627 59.0523C184.227 58.4549 184.688 57.7628 185.01 56.976C185.346 56.1746 185.514 55.315 185.514 54.3971Z" fill="#3F4668"/>
<path d="M201.627 62.0027H190.589V46.704H201.517V47.753H191.73V53.7633H200.529V54.8123H191.73V60.9537H201.627V62.0027Z" fill="#3F4668"/>
<path d="M215.582 58.0469C215.582 58.6589 215.45 59.2271 215.187 59.7516C214.938 60.2616 214.587 60.6987 214.133 61.063C213.695 61.4272 213.161 61.7113 212.531 61.9153C211.917 62.1193 211.237 62.2213 210.491 62.2213C209.262 62.2213 208.15 62.0173 207.155 61.6093C206.175 61.2014 205.224 60.5894 204.302 59.7735L205.048 58.9211C205.473 59.3145 205.89 59.6569 206.299 59.9483C206.723 60.2252 207.155 60.4583 207.594 60.6477C208.033 60.8225 208.494 60.961 208.976 61.063C209.459 61.1504 209.986 61.1941 210.556 61.1941C211.127 61.1941 211.654 61.1212 212.137 60.9755C212.619 60.8153 213.029 60.604 213.365 60.3417C213.702 60.0649 213.965 59.7444 214.155 59.3801C214.346 59.0013 214.441 58.5933 214.441 58.1562V58.1125C214.441 57.7045 214.375 57.3403 214.243 57.0197C214.126 56.6992 213.899 56.4078 213.563 56.1455C213.241 55.8832 212.802 55.6501 212.246 55.4461C211.69 55.2276 210.973 55.0309 210.096 54.856C209.174 54.6666 208.384 54.4481 207.726 54.2004C207.067 53.9381 206.526 53.6394 206.102 53.3043C205.692 52.9546 205.392 52.5539 205.202 52.1023C205.012 51.6506 204.917 51.1333 204.917 50.5505V50.5068C204.917 49.9386 205.041 49.414 205.29 48.9332C205.538 48.4378 205.882 48.008 206.321 47.6438C206.76 47.2795 207.279 46.9954 207.879 46.7914C208.479 46.5874 209.137 46.4854 209.854 46.4854C210.966 46.4854 211.924 46.6384 212.729 46.9444C213.548 47.2504 214.346 47.7166 215.121 48.3431L214.397 49.2392C213.665 48.6127 212.926 48.1683 212.18 47.906C211.449 47.6438 210.659 47.5126 209.81 47.5126C209.24 47.5126 208.72 47.5928 208.252 47.753C207.799 47.8987 207.404 48.1027 207.067 48.365C206.745 48.6272 206.497 48.9332 206.321 49.2829C206.146 49.6326 206.058 50.0041 206.058 50.3975V50.4412C206.058 50.8492 206.116 51.2207 206.233 51.5559C206.365 51.8764 206.592 52.1751 206.914 52.4519C207.25 52.7142 207.711 52.9546 208.296 53.1732C208.881 53.3917 209.627 53.5957 210.535 53.7851C212.319 54.1494 213.607 54.6666 214.397 55.3368C215.187 55.9925 215.582 56.8813 215.582 58.0032V58.0469Z" fill="#3F4668"/>
<path d="M220.621 62.0027H219.48V46.704H220.621V62.0027Z" fill="#3F4668"/>
<path d="M238.428 59.9702C237.725 60.5821 236.855 61.1212 235.816 61.5875C234.792 62.0392 233.651 62.265 232.393 62.265C231.179 62.265 230.089 62.061 229.123 61.6531C228.172 61.2305 227.367 60.6623 226.709 59.9483C226.051 59.2344 225.546 58.4039 225.195 57.4568C224.844 56.4952 224.668 55.4753 224.668 54.3971V54.3534C224.668 53.3189 224.844 52.3281 225.195 51.381C225.561 50.4194 226.073 49.5743 226.731 48.8458C227.404 48.1173 228.209 47.5345 229.145 47.0974C230.081 46.6603 231.12 46.4417 232.261 46.4417C232.89 46.4417 233.461 46.4854 233.973 46.5728C234.5 46.6603 234.982 46.7914 235.421 46.9662C235.875 47.1411 236.299 47.3523 236.694 47.6C237.104 47.8477 237.499 48.1319 237.879 48.4524L237.133 49.3048C236.533 48.7802 235.845 48.3431 235.07 47.9934C234.309 47.6437 233.351 47.4689 232.195 47.4689C231.259 47.4689 230.403 47.651 229.628 48.0153C228.852 48.3796 228.179 48.8749 227.609 49.5015C227.053 50.128 226.621 50.8565 226.314 51.687C226.007 52.5175 225.853 53.3917 225.853 54.3096V54.3534C225.853 55.3441 226 56.2621 226.292 57.1071C226.599 57.9522 227.038 58.6807 227.609 59.2927C228.179 59.9046 228.867 60.3854 229.672 60.7351C230.491 61.0848 231.413 61.2597 232.437 61.2597C232.919 61.2597 233.395 61.2159 233.863 61.1285C234.331 61.0265 234.77 60.8954 235.18 60.7351C235.604 60.5749 235.999 60.3927 236.365 60.1887C236.731 59.9702 237.052 59.7443 237.33 59.5112V55.1183H232.195V54.0692H238.428V59.9702Z" fill="#3F4668"/>
<path d="M255.329 62.0027H254.473L243.654 48.4087V62.0027H242.557V46.704H243.632L254.232 60.0139V46.704H255.329V62.0027Z" fill="#3F4668"/>
<path d="M33.751 64L19.5884 12.9829H0V0L33.7509 1.27012e-05L33.751 64Z" fill="#252F60"/>
<path d="M102.902 32C102.902 36.5105 102.074 40.7162 100.419 44.6171C98.7633 48.5181 96.4029 51.901 93.3374 54.7657C90.3332 57.6305 86.7159 59.8857 82.4856 61.5314C78.3165 63.1771 73.7183 64 68.6909 64H43.5846V6.38676e-06H68.6909C73.7183 6.38676e-06 78.3165 0.822864 82.4856 2.46858C86.7159 4.05334 90.3332 6.2781 93.3374 9.14286C96.4029 12.0076 98.7633 15.3905 100.419 19.2914C102.074 23.1314 102.902 27.3067 102.902 31.8171V32ZM88.0954 32.1829V32C88.0954 29.1962 87.6049 26.6057 86.624 24.2286C85.7043 21.8514 84.3862 19.8095 82.6695 18.1029C81.0141 16.3962 78.9909 15.0857 76.5999 14.1714C74.2088 13.1962 71.5725 12.7086 68.6909 12.7086H57.7471V51.2914H68.6909C71.5725 51.2914 74.2088 50.8343 76.5999 49.92C78.9909 49.0057 81.0141 47.6952 82.6695 45.9886C84.3862 44.2819 85.7043 42.2705 86.624 39.9543C87.6049 37.6381 88.0954 35.0476 88.0954 32.1829Z" fill="#CC264E"/>
</svg>
