<svg width="32" height="32" viewBox="0 0 32 32" fill="none" xmlns="http://www.w3.org/2000/svg">
<path d="M4.66667 4C4.29848 4 4 4.29848 4 4.66667V18.6667C4 20.1394 5.19391 21.3333 6.66667 21.3333H23.56L18.96 25.92C18.8338 26.0452 18.7628 26.2156 18.7628 26.3933C18.7628 26.5711 18.8338 26.7415 18.96 26.8667L19.9067 27.8C20.0318 27.9262 20.2022 27.9972 20.38 27.9972C20.5578 27.9972 20.7282 27.9262 20.8533 27.8L27.7067 20.96C27.8943 20.7726 27.9998 20.5185 28 20.2533V19.7467C27.9969 19.4821 27.8918 19.229 27.7067 19.04L20.8533 12.2C20.7282 12.0738 20.5578 12.0028 20.38 12.0028C20.2022 12.0028 20.0318 12.0738 19.9067 12.2L18.96 13.1467C18.8346 13.2696 18.7639 13.4377 18.7639 13.6133C18.7639 13.7889 18.8346 13.9571 18.96 14.08L23.56 18.6667H6.66667V4.66667C6.66667 4.29848 6.36819 4 6 4H4.66667Z" fill="#CC264E"/>
</svg>
